<svg xmlns="http://www.w3.org/2000/svg" viewBox="0 0 32 32" width="32" height="32">
  <style>
    .glyph {
      fill: #1b1813;
    }
    @media (prefers-color-scheme: dark) {
      .glyph {
        fill: #f4f1e8;
      }
    }
  </style>
  <path class="glyph" d="M5.980 23.805Q5.887 23.711 5.887 23.406Q5.887 22.961 5.957 22.961Q6.238 22.961 6.789 22.797Q7.340 22.633 7.820 22.363Q8.301 22.094 8.324 21.766L8.418 20.641Q8.676 16.445 8.723 13.656Q8.770 10.867 8.840 9.953Q8.840 9.695 8.770 9.531Q8.723 9.391 8.371 9.285Q8.020 9.180 7.633 9.109Q7.246 9.039 7.035 9.039Q6.941 9.039 6.941 8.547Q6.941 8.289 7.035 8.195Q7.270 8.195 7.750 8.230Q8.230 8.266 8.781 8.301Q9.332 8.336 9.730 8.336Q10.059 8.336 10.563 8.301Q11.066 8.266 11.535 8.230Q12.004 8.195 12.191 8.195Q12.309 8.570 12.789 9.672Q13.270 10.773 14.113 12.602Q14.957 14.453 15.590 15.871Q16.223 17.289 16.621 18.320L16.668 18.320Q16.715 18.320 16.715 18.297Q17.605 16.070 18.332 14.219Q19.059 12.367 19.574 10.914L20.348 8.289Q20.559 8.313 21.039 8.324Q21.520 8.336 22.246 8.336L25.199 8.195Q25.293 8.313 25.293 8.570Q25.293 9.063 25.176 9.063L25.152 9.063Q24.566 9.063 24.168 9.344Q23.793 9.602 23.840 10.305L24.309 20.148Q24.379 21.555 24.660 22.305Q24.730 22.445 25 22.586Q25.270 22.727 25.574 22.832Q25.879 22.938 26.020 22.938Q26.113 22.938 26.113 23.406Q26.113 23.617 26.066 23.805Q25.902 23.781 25.340 23.746Q24.777 23.711 24.145 23.664Q23.512 23.617 23.090 23.617Q22.668 23.617 21.941 23.664Q21.215 23.711 20.570 23.746Q19.926 23.781 19.691 23.805Q19.574 23.688 19.574 23.430Q19.574 22.938 19.645 22.938Q19.832 22.938 20.137 22.832Q20.441 22.727 20.734 22.574Q21.027 22.422 21.098 22.281Q21.285 21.906 21.285 21.625Q21.285 21.367 21.273 21.016Q21.262 20.664 21.238 20.242L21.051 14.289Q20.957 12.719 20.863 12.719Q20.816 12.719 20.746 12.883L16.691 22.984Q16.598 23.219 16.316 23.488Q16.035 23.758 15.754 23.758Q15.730 23.758 15.543 23.711L10.387 12.133L9.988 21.156Q9.988 21.484 9.988 21.695Q9.988 21.906 10.012 22Q10.059 22.141 10.352 22.305Q10.645 22.469 11.043 22.609Q11.441 22.750 11.805 22.844Q12.168 22.938 12.309 22.938Q12.402 22.938 12.402 23.406Q12.402 23.617 12.355 23.805Q10.949 23.805 10.234 23.781Q9.520 23.758 9.215 23.734Q8.910 23.711 8.770 23.699Q8.629 23.688 8.418 23.688Q8.207 23.688 7.668 23.711Q7.129 23.734 5.980 23.805" />
</svg>
